<svg width="375" height="350" viewBox="0 0 375 350" fill="none" xmlns="http://www.w3.org/2000/svg">
<path fill-rule="evenodd" clip-rule="evenodd" d="M-35.5898 151.399C-62.1893 107.295 -36.1657 45.8066 -2.54597 -1.53622C26.4078 -42.3086 82.0414 -52.9302 127.827 -78.7227C185.178 -111.03 232.149 -174.107 295.01 -169.158C362.626 -163.835 412.004 -111.741 430.345 -54.9081C447.557 -1.57006 413.642 56.0365 385.39 110.907C358.011 164.084 334.74 230.602 273.367 249.973C213.61 268.834 171.489 213.343 116.462 195.786C64.3964 179.175 -9.72722 194.281 -35.5898 151.399Z" fill="#4F5DC1"/>
<path d="M39.7059 90.4553C58.6813 76.3899 63.0169 49.1103 49.3898 29.5247C35.7627 9.93902 9.33323 5.46394 -9.64211 19.5293C-28.6175 33.5947 -32.9531 60.8743 -19.326 80.4599C-5.69889 100.046 20.7306 104.521 39.7059 90.4553Z" fill="url(#paint0_linear_378_4798)"/>
<path d="M265.229 244.752C276.203 234.959 277.409 217.838 267.921 206.51C258.434 195.183 241.846 193.939 230.871 203.731C219.897 213.524 218.691 230.645 228.179 241.973C237.666 253.301 254.254 254.545 265.229 244.752Z" fill="url(#paint1_linear_378_4798)"/>
<defs>
<linearGradient id="paint0_linear_378_4798" x1="-19.3268" y1="80.4585" x2="50.8554" y2="31.6279" gradientUnits="userSpaceOnUse">
<stop stop-color="#EF233C"/>
<stop offset="1" stop-color="#DFD407"/>
</linearGradient>
<linearGradient id="paint1_linear_378_4798" x1="265.228" y1="244.752" x2="229.621" y2="204.847" gradientUnits="userSpaceOnUse">
<stop stop-color="#3492E8"/>
<stop offset="1" stop-color="#A8EDD8"/>
</linearGradient>
</defs>
</svg>
