<svg width="112" height="94" viewBox="0 0 112 94" fill="none" xmlns="http://www.w3.org/2000/svg">
<path d="M55.542 42.627C57.0146 43.677 58.5453 44.777 59.9792 45.797C60.8221 46.387 61.5972 46.927 62.1979 47.337C62.4789 47.607 62.9148 47.907 63.2249 48.157C63.0602 48.007 63.1474 48.017 63.283 48.117C64.2615 48.837 63.3702 48.127 64.3875 48.827C64.9494 49.197 66.2283 50.127 67.5168 51.077C69.3382 52.427 71.179 53.787 72.051 54.437C72.1091 54.227 72.1479 54.097 72.1769 53.987C72.3029 53.317 72.4676 52.657 72.642 51.997C72.7292 51.667 72.8067 51.337 72.8939 51.017C72.9229 50.887 72.952 50.757 72.9811 50.637C73.0005 50.547 73.0101 50.467 73.0295 50.377V50.447C73.1748 49.737 74.2793 45.777 74.4634 44.957L74.4246 45.067C74.5603 44.337 74.6184 44.467 74.7928 43.907C74.6765 43.957 74.7831 43.327 74.8412 43.097L74.8606 43.107C74.9381 42.747 75.0641 41.937 75.1997 41.347L75.2481 41.387C75.316 40.887 75.5775 39.987 75.655 39.637C75.8779 38.847 76.2848 37.647 76.4883 36.567L76.808 35.917L76.8176 35.817L77.1471 33.417C77.2149 32.867 75.006 34.137 74.9769 34.077C75.1319 34.007 75.2966 33.947 75.3451 33.937C75.2966 33.927 74.9768 34.047 74.8121 34.137V34.217C74.444 34.407 74.7056 34.217 74.3374 34.377C74.2987 34.327 74.6281 34.167 74.9284 34.027C74.6571 34.137 74.3665 34.217 74.2793 34.327C74.0177 34.417 74.2793 34.247 73.9596 34.357C73.7464 34.467 73.4849 34.647 73.2136 34.727V34.717C72.5742 34.927 72.3125 35.217 71.7312 35.397L71.7797 35.347C71.5665 35.397 71.1984 35.617 70.8302 35.737C70.9368 35.707 71.0434 35.707 70.8302 35.807C70.4039 35.947 70.1424 36.107 69.8227 36.197L69.5611 36.377C68.1272 36.987 62.5176 39.527 61.0934 40.167L61.1418 40.137C59.737 40.777 57.7219 41.667 55.542 42.627Z" fill="white"/>
<path d="M51.2588 24.1071C52.7217 23.0371 54.2428 21.9171 55.6573 20.8871C56.4809 20.2771 57.2365 19.7071 57.8178 19.2571C58.1569 19.0771 58.5832 18.7571 58.9126 18.5371C58.7189 18.6471 58.7576 18.5671 58.9029 18.4671C59.8911 17.7571 58.9417 18.3871 59.9299 17.6371C60.4628 17.2171 61.7417 16.2871 63.0496 15.3571C64.9001 14.0471 66.7699 12.7271 67.6516 12.0971C67.4772 11.9671 67.3706 11.8971 67.2834 11.8271C66.7215 11.4771 66.1692 11.0971 65.6267 10.6971C65.3554 10.5071 65.0842 10.3071 64.8129 10.1271C64.7063 10.0571 64.5997 9.97712 64.4931 9.90712C64.4156 9.85712 64.3478 9.81712 64.2703 9.76712L64.3381 9.78712C63.7374 9.39712 60.5112 6.98713 59.8233 6.52713L59.9105 6.60713C59.2904 6.22713 59.4261 6.20713 58.9805 5.85713C58.9901 5.97713 58.4573 5.66712 58.2538 5.53712L58.2732 5.52713C57.9729 5.33713 57.2753 4.93713 56.7909 4.60713L56.8393 4.57712C56.413 4.33712 55.6767 3.78712 55.386 3.58712C54.7466 3.09712 53.7875 2.29712 52.8768 1.72712L52.402 1.19712L52.3148 1.14712L50.2415 0.0171234C49.7668 -0.232877 50.1737 2.33713 50.1059 2.34713C50.0962 2.16713 50.0962 1.99712 50.0962 1.93712C50.0672 1.98712 50.0672 2.33712 50.0962 2.51712L50.1737 2.54712C50.2221 2.97712 50.1349 2.64713 50.164 3.06713C50.1059 3.09713 50.0768 2.70712 50.0477 2.36712C50.0574 2.66712 50.0284 2.97713 50.0962 3.09713C50.0865 3.38713 50.0187 3.06713 50.009 3.41712C50.0381 3.65712 50.1156 3.97712 50.0962 4.26712H50.0865C50.0575 4.95712 50.2318 5.30712 50.2028 5.93712L50.1834 5.86712C50.164 6.08712 50.2319 6.52713 50.2125 6.92713C50.2222 6.80713 50.2609 6.70712 50.2803 6.94712C50.2706 7.40712 50.319 7.71712 50.2899 8.05712L50.3675 8.37712C50.4353 9.97712 50.8422 16.2871 50.9391 17.8871L50.9294 17.8271C50.9972 19.4071 51.1231 21.6671 51.2588 24.1071Z" fill="white"/>
<path d="M49.6514 87.8872C51.3759 88.3572 53.1876 88.8472 54.8637 89.3072C55.8519 89.5672 56.753 89.7972 57.4602 89.9672C57.809 90.1272 58.3224 90.2572 58.7003 90.3772C58.4968 90.2972 58.5744 90.2672 58.7391 90.3172C59.9017 90.6472 58.8263 90.2972 60.0083 90.5972C60.6574 90.7472 62.1688 91.1672 63.6995 91.6072C65.8503 92.2372 68.0399 92.8672 69.0766 93.1672C69.0572 92.9472 69.0572 92.8172 69.0475 92.7072C68.9507 92.0372 68.8828 91.3572 68.8247 90.6672C68.7956 90.3272 68.7666 89.9872 68.7375 89.6572C68.7278 89.5272 68.7084 89.3972 68.6987 89.2672C68.689 89.1772 68.6697 89.0972 68.66 89.0072L68.6891 89.0772C68.5922 88.3572 68.3209 84.2472 68.2143 83.4072V83.5172C68.098 82.7872 68.2046 82.8772 68.1756 82.2972C68.0884 82.3872 67.9818 81.7572 67.9527 81.5172L67.9721 81.5272C67.9236 81.1672 67.7687 80.3572 67.7105 79.7572L67.7687 79.7772C67.6718 79.2872 67.6136 78.3472 67.5749 77.9872C67.5264 77.1672 67.5071 75.8972 67.3424 74.8072L67.4295 74.0872L67.4102 73.9872L66.9258 71.6172C66.8095 71.0772 65.1528 73.0472 65.1044 72.9972C65.2303 72.8772 65.3562 72.7572 65.4047 72.7272C65.3466 72.7372 65.0947 72.9572 64.9687 73.0972L64.9977 73.1772C64.7071 73.4872 64.9009 73.2072 64.6005 73.4972C64.5424 73.4672 64.804 73.1972 65.0462 72.9572C64.8234 73.1572 64.5812 73.3372 64.5327 73.4672C64.3099 73.6372 64.5037 73.3872 64.2421 73.6072C64.0774 73.7872 63.8933 74.0472 63.6704 74.2172V74.2072C63.1376 74.6272 62.9826 74.9872 62.4982 75.3672L62.5369 75.3072C62.3528 75.4272 62.0816 75.7672 61.7715 76.0072C61.8587 75.9372 61.9653 75.9072 61.7909 76.0672C61.4421 76.3472 61.2387 76.5972 60.9674 76.7872L60.7736 77.0472C59.6304 78.1272 55.1931 82.4872 54.0596 83.5872L54.0983 83.5372C52.9841 84.6672 51.3759 86.2172 49.6514 87.8872Z" fill="white"/>
<path d="M88.8887 46.9471C90.09 48.3171 91.3398 49.7571 92.4927 51.0871C93.1806 51.8571 93.8103 52.5671 94.3141 53.1071C94.5273 53.4371 94.8858 53.8371 95.128 54.1471C95.002 53.9571 95.0796 53.9871 95.1958 54.1271C95.9903 55.0571 95.283 54.1571 96.1065 55.0871C96.5716 55.5871 97.6082 56.7871 98.6546 58.0171C100.127 59.7571 101.619 61.5271 102.326 62.3571C102.433 62.1671 102.491 62.0471 102.549 61.9571C102.821 61.3371 103.131 60.7371 103.441 60.1271C103.596 59.8271 103.751 59.5271 103.906 59.2271C103.964 59.1071 104.022 58.9971 104.08 58.8771C104.119 58.7971 104.148 58.7171 104.187 58.6371L104.177 58.7071C104.477 58.0471 106.434 54.4571 106.793 53.6971L106.725 53.7871C107.016 53.1071 107.054 53.2471 107.345 52.7471C107.229 52.7671 107.461 52.1871 107.568 51.9671L107.578 51.9871C107.733 51.6571 108.033 50.8971 108.294 50.3571L108.333 50.4071C108.508 49.9371 108.963 49.1171 109.118 48.7971C109.515 48.0871 110.174 47.0071 110.61 46.0071L111.065 45.4571L111.094 45.3571L111.947 43.1071C112.131 42.5871 109.699 43.2971 109.69 43.2371C109.864 43.2071 110.029 43.1871 110.087 43.1871C110.038 43.1671 109.699 43.2071 109.525 43.2571L109.506 43.3371C109.099 43.4371 109.399 43.3071 109.002 43.3871C108.973 43.3271 109.331 43.2471 109.661 43.1871C109.37 43.2271 109.07 43.2371 108.963 43.3271C108.682 43.3471 108.982 43.2471 108.643 43.2771C108.411 43.3371 108.11 43.4471 107.839 43.4571V43.4471C107.171 43.4971 106.851 43.7171 106.241 43.7571L106.299 43.7271C106.086 43.7271 105.669 43.8471 105.281 43.8771C105.398 43.8671 105.495 43.8971 105.272 43.9471C104.826 43.9871 104.535 44.0771 104.206 44.0871L103.906 44.1971C102.375 44.4471 96.3487 45.5971 94.818 45.8771L94.8761 45.8571C93.3841 46.1371 91.2139 46.5271 88.8887 46.9471Z" fill="white"/>
<path d="M80.2666 22.6071C82.0105 23.0071 83.8416 23.4171 85.5371 23.8071C86.535 24.0271 87.4457 24.2171 88.153 24.3671C88.5114 24.5071 89.0249 24.6171 89.4027 24.7271C89.1896 24.6471 89.2768 24.6271 89.4415 24.6671C90.6138 24.9471 89.5287 24.6471 90.7204 24.8971C91.3792 25.0271 92.9003 25.3771 94.4504 25.7571C96.6303 26.2871 98.8392 26.8371 99.8856 27.0871C99.8662 26.8671 99.8468 26.7371 99.8372 26.6271C99.7112 25.9571 99.6143 25.2871 99.5368 24.6071C99.4884 24.2671 99.4496 23.9271 99.4109 23.5971C99.3915 23.4671 99.3721 23.3371 99.3527 23.2071C99.3334 23.1171 99.3237 23.0371 99.3043 22.9471L99.3333 23.0171C99.2074 22.2971 98.7811 18.2071 98.6358 17.3771V17.4971C98.4905 16.7771 98.597 16.8571 98.5583 16.2771C98.4711 16.3671 98.3354 15.7471 98.3064 15.5071L98.3258 15.5171C98.2676 15.1571 98.0739 14.3571 97.9867 13.7571L98.0448 13.7771C97.9286 13.2871 97.8317 12.3571 97.7832 11.9971C97.7057 11.1771 97.6379 9.90707 97.4248 8.82707L97.4829 8.10708L97.4538 8.00707L96.8725 5.66707C96.7369 5.13707 95.1577 7.17707 95.1092 7.12707C95.2352 6.99707 95.3514 6.87707 95.3999 6.84707C95.3417 6.85707 95.0995 7.09707 94.9833 7.23707L95.0124 7.31708C94.7411 7.63708 94.9155 7.35707 94.6345 7.65707C94.5764 7.62707 94.8283 7.34708 95.0608 7.10708C94.8476 7.31708 94.6054 7.49708 94.5667 7.63708C94.3535 7.82708 94.5376 7.55707 94.2857 7.78707C94.1307 7.97707 93.9563 8.24707 93.7335 8.41707V8.40707C93.22 8.84707 93.0843 9.21707 92.6096 9.61707L92.6387 9.55707C92.4643 9.68707 92.193 10.0371 91.9024 10.2871C91.9896 10.2171 92.0865 10.1771 91.9315 10.3571C91.5924 10.6571 91.4083 10.9071 91.137 11.1071L90.9626 11.3771C89.8581 12.5071 85.6049 17.0471 84.5101 18.1971L84.5489 18.1471C83.4638 19.2471 81.9233 20.8671 80.2666 22.6071Z" fill="white"/>
<path d="M30.0898 65.8972C31.8725 66.0672 33.7327 66.2472 35.4572 66.4072C36.4648 66.4972 37.4046 66.5772 38.1215 66.6172C38.4897 66.7172 39.0128 66.7572 39.4101 66.8072C39.1969 66.7572 39.2745 66.7272 39.4392 66.7472C40.6405 66.8772 39.5263 66.7172 40.7374 66.8072C41.4059 66.8472 42.956 67.0072 44.5352 67.1772C46.7635 67.4272 49.021 67.6772 50.0867 67.7972C50.0382 67.5872 50.0091 67.4572 49.9801 67.3472C49.7766 66.7072 49.6022 66.0472 49.4375 65.3772C49.3503 65.0472 49.2632 64.7172 49.1857 64.3972C49.1469 64.2672 49.1178 64.1472 49.0791 64.0172C49.05 63.9372 49.0307 63.8472 49.0016 63.7672L49.0403 63.8272C48.8272 63.1272 47.9068 59.1272 47.6743 58.3172L47.6936 58.4272C47.4611 57.7272 47.5774 57.7972 47.4611 57.2272C47.3836 57.3272 47.1802 56.7272 47.1123 56.4972H47.1317C47.0252 56.1472 46.7441 55.3772 46.5891 54.7972L46.6473 54.8072C46.4729 54.3372 46.2597 53.4172 46.1725 53.0772C45.9981 52.2772 45.7754 51.0272 45.4363 49.9772L45.4072 49.2472L45.3684 49.1472L44.5062 46.8972C44.3027 46.3872 42.9851 48.6072 42.9367 48.5672C43.0432 48.4272 43.1498 48.2872 43.1886 48.2572C43.1401 48.2772 42.9173 48.5372 42.8204 48.6972L42.8591 48.7672C42.6266 49.1272 42.7623 48.8172 42.5201 49.1572C42.4619 49.1372 42.6751 48.8272 42.8688 48.5572C42.6847 48.7972 42.4716 49.0072 42.4425 49.1472C42.2585 49.3572 42.4038 49.0772 42.1809 49.3272C42.055 49.5372 41.9097 49.8272 41.7062 50.0272L41.6965 50.0172C41.2412 50.5172 41.1443 50.9072 40.7277 51.3672L40.7471 51.2972C40.5921 51.4472 40.3692 51.8272 40.098 52.1172C40.1755 52.0372 40.2723 51.9872 40.1367 52.1772C39.8364 52.5172 39.6814 52.7872 39.4392 53.0272L39.2938 53.3172C38.3347 54.5772 34.6628 59.6372 33.723 60.9072L33.752 60.8572C32.8607 62.1572 31.5334 63.9572 30.0898 65.8972Z" fill="white"/>
<path d="M12.06 90.2872C12.9126 88.6672 13.8039 86.9672 14.6371 85.3972C15.1119 84.4772 15.5479 83.6172 15.8773 82.9572C16.1098 82.6472 16.3519 82.1672 16.5554 81.8172C16.4295 82.0072 16.4295 81.9172 16.5167 81.7572C17.1077 80.6672 16.5167 81.6672 17.0883 80.5472C17.3886 79.9272 18.1443 78.5172 18.9194 77.0872C20.0238 75.0772 21.138 73.0372 21.6612 72.0672C21.4481 72.0272 21.3221 72.0072 21.2156 71.9872C20.5568 71.9272 19.9076 71.8372 19.2488 71.7272C18.9194 71.6772 18.59 71.6272 18.28 71.5772C18.154 71.5572 18.028 71.5472 17.9021 71.5272C17.8149 71.5172 17.7277 71.5072 17.6502 71.5072L17.718 71.4972C17.0108 71.4172 13.087 70.7172 12.2732 70.6172L12.3797 70.6472C11.6628 70.5872 11.779 70.5072 11.2268 70.3972C11.2849 70.5072 10.6746 70.4672 10.442 70.4372L10.4517 70.4172C10.1029 70.3772 9.29884 70.3372 8.72723 70.2672L8.75626 70.2172C8.27184 70.1972 7.37085 70.0372 7.02206 69.9872C6.2373 69.8372 5.03593 69.5572 3.9799 69.4572L3.32109 69.1972H3.21453L0.869962 69.1272C0.337101 69.1172 1.80001 71.2472 1.74188 71.2772C1.65469 71.1172 1.57719 70.9672 1.5675 70.9172C1.55781 70.9672 1.71283 71.2872 1.8194 71.4372L1.89693 71.4272C2.11976 71.7872 1.90659 71.5372 2.11004 71.8972C2.07129 71.9472 1.87755 71.6172 1.71285 71.3272C1.84848 71.5972 1.95505 71.8872 2.07131 71.9572C2.18757 72.2172 1.9938 71.9672 2.12944 72.2772C2.26508 72.4872 2.46855 72.7372 2.56543 72.9972H2.55573C2.82701 73.6272 3.12731 73.8672 3.36952 74.4472L3.32109 74.3972C3.3986 74.6072 3.6408 74.9672 3.79581 75.3372C3.74737 75.2272 3.74738 75.1272 3.86364 75.3272C4.04772 75.7472 4.2318 76.0072 4.34806 76.3172L4.55154 76.5672C5.29754 77.9672 8.34935 83.4472 9.11473 84.8472L9.076 84.7972C9.83169 86.1772 10.9071 88.1572 12.06 90.2872Z" fill="white"/>
<path d="M29.9445 43.5571C28.9853 41.9971 27.9777 40.3671 27.0477 38.8571C26.4954 37.9771 25.982 37.1671 25.5751 36.5471C25.4201 36.1871 25.1294 35.7371 24.9356 35.3771C25.0325 35.5871 24.955 35.5371 24.8678 35.3871C24.2283 34.3271 24.7903 35.3371 24.1218 34.2871C23.744 33.7171 22.9107 32.3571 22.0775 30.9571C20.9052 28.9871 19.7136 26.9971 19.1517 26.0471C19.016 26.2171 18.9385 26.3171 18.8707 26.4071C18.5025 26.9771 18.1053 27.5171 17.6984 28.0571C17.495 28.3271 17.3012 28.5971 17.0977 28.8671C17.0202 28.9771 16.9427 29.0771 16.8749 29.1771C16.8264 29.2471 16.778 29.3271 16.7296 29.3971L16.7586 29.3271C16.3517 29.9271 13.8521 33.1371 13.3774 33.8171L13.4549 33.7371C13.0577 34.3571 13.0479 34.2171 12.6798 34.6571C12.796 34.6571 12.4666 35.1871 12.331 35.3871L12.3213 35.3671C12.1179 35.6671 11.7012 36.3671 11.3525 36.8471L11.3234 36.7971C11.0715 37.2271 10.4999 37.9571 10.2868 38.2471C9.78297 38.8871 8.95948 39.8271 8.36849 40.7471L7.82594 41.2171L7.77745 41.3071L6.5761 43.3871C6.30483 43.8671 8.82381 43.5771 8.82381 43.6371C8.64942 43.6371 8.47506 43.6371 8.42662 43.6271C8.46537 43.6571 8.80442 43.6771 8.9885 43.6571L9.01759 43.5771C9.43419 43.5471 9.1145 43.6271 9.52141 43.6171C9.54078 43.6771 9.17261 43.6971 8.84321 43.6971C9.13386 43.6971 9.43418 43.7471 9.55044 43.6771C9.83141 43.6971 9.52137 43.7571 9.85078 43.7771C10.0833 43.7571 10.4031 43.6971 10.6743 43.7371L10.6646 43.7471C11.3331 43.8071 11.6819 43.6471 12.2923 43.7071L12.2244 43.7271C12.4376 43.7671 12.8639 43.7171 13.2514 43.7471C13.1448 43.7371 13.048 43.6871 13.2805 43.6771C13.7262 43.7171 14.0265 43.6771 14.3559 43.7171L14.6659 43.6571C16.2161 43.6671 22.3391 43.5671 23.8989 43.5471L23.8408 43.5571C25.3813 43.5871 27.5805 43.5771 29.9445 43.5571Z" fill="white"/>
</svg>
